{
  "asset": {
    "version": "2.0",
    "generator": "THREE.GLTFExporter"
  },
  "scenes": [
    {
      "nodes": [
        6
      ],
      "name": "AuxScene"
    }
  ],
  "scene": 0,
  "nodes": [
    {
      "mesh": 0
    },
    {
      "mesh": 1
    },
    {
      "mesh": 2
    },
    {
      "mesh": 3
    },
    {
      "mesh": 4
    },
    {
      "mesh": 5
    },
    {
      "children": [
        0,
        1,
        2,
        3,
        4,
        5
      ]
    }
  ],
  "bufferViews": [
    {
      "buffer": 0,
      "byteOffset": 0,
      "byteLength": 11304,
      "target": 34962,
      "byteStride": 12
    },
    {
      "buffer": 0,
      "byteOffset": 11304,
      "byteLength": 11304,
      "target": 34962,
      "byteStride": 12
    },
    {
      "buffer": 0,
      "byteOffset": 22608,
      "byteLength": 7536,
      "target": 34962,
      "byteStride": 8
    },
    {
      "buffer": 0,
      "byteOffset": 30144,
      "byteLength": 1884,
      "target": 34963
    },
    {
      "buffer": 0,
      "byteOffset": 32028,
      "byteLength": 65952,
      "target": 34962,
      "byteStride": 12
    },
    {
      "buffer": 0,
      "byteOffset": 97980,
      "byteLength": 65952,
      "target": 34962,
      "byteStride": 12
    },
    {
      "buffer": 0,
      "byteOffset": 163932,
      "byteLength": 43968,
      "target": 34962,
      "byteStride": 8
    },
    {
      "buffer": 0,
      "byteOffset": 207900,
      "byteLength": 10992,
      "target": 34963
    },
    {
      "buffer": 0,
      "byteOffset": 218892,
      "byteLength": 66492,
      "target": 34962,
      "byteStride": 12
    },
    {
      "buffer": 0,
      "byteOffset": 285384,
      "byteLength": 66492,
      "target": 34962,
      "byteStride": 12
    },
    {
      "buffer": 0,
      "byteOffset": 351876,
      "byteLength": 44328,
      "target": 34962,
      "byteStride": 8
    },
    {
      "buffer": 0,
      "byteOffset": 396204,
      "byteLength": 11084,
      "target": 34963
    },
    {
      "buffer": 0,
      "byteOffset": 407288,
      "byteLength": 126792,
      "target": 34962,
      "byteStride": 12
    },
    {
      "buffer": 0,
      "byteOffset": 534080,
      "byteLength": 126792,
      "target": 34962,
      "byteStride": 12
    },
    {
      "buffer": 0,
      "byteOffset": 660872,
      "byteLength": 84528,
      "target": 34962,
      "byteStride": 8
    },
    {
      "buffer": 0,
      "byteOffset": 745400,
      "byteLength": 21132,
      "target": 34963
    },
    {
      "buffer": 0,
      "byteOffset": 766532,
      "byteLength": 155436,
      "target": 34962,
      "byteStride": 12
    },
    {
      "buffer": 0,
      "byteOffset": 921968,
      "byteLength": 155436,
      "target": 34962,
      "byteStride": 12
    },
    {
      "buffer": 0,
      "byteOffset": 1077404,
      "byteLength": 103624,
      "target": 34962,
      "byteStride": 8
    },
    {
      "buffer": 0,
      "byteOffset": 1181028,
      "byteLength": 25916,
      "target": 34963
    },
    {
      "buffer": 0,
      "byteOffset": 1206944,
      "byteLength": 16920,
      "target": 34962,
      "byteStride": 12
    },
    {
      "buffer": 0,
      "byteOffset": 1223864,
      "byteLength": 16920,
      "target": 34962,
      "byteStride": 12
    },
    {
      "buffer": 0,
      "byteOffset": 1240784,
      "byteLength": 11280,
      "target": 34962,
      "byteStride": 8
    },
    {
      "buffer": 0,
      "byteOffset": 1252064,
      "byteLength": 2820,
      "target": 34963
    }
  ],
  "buffers": [
    {
      "byteLength": 1254884,
      "uri": "data:application/octet-stream;base64,"
    }
  ],
  "accessors": [
    {
      "bufferView": 0,
      "componentType": 5126,
      "count": 942,
      "max": [
        0.10214482992887497,
        1.0349030494689941,
        0.17400506138801575
      ],
      "min": [
        -0.10396917164325714,
        0.9981589913368225,
        0.13024885952472687
      ],
      "type": "VEC3"
    },
    {
      "bufferView": 1,
      "componentType": 5126,
      "count": 942,
      "max": [
        0.8803552985191345,
        0.9984816312789917,
        0.9993014931678772
      ],
      "min": [
        -0.8799758553504944,
        -0.9954639077186584,
        -0.5523388385772705
      ],
      "type": "VEC3"
    },
    {
      "bufferView": 2,
      "componentType": 5126,
      "count": 942,
      "max": [
        0.9926999807357788,
        0.9951000213623047
      ],
      "min": [
        0.0020000000949949026,
        0.016100000590085983
      ],
      "type": "VEC2"
    },
    {
      "bufferView": 3,
      "componentType": 5123,
      "count": 942,
      "max": [
        941
      ],
      "min": [
        0
      ],
      "type": "SCALAR"
    },
    {
      "bufferView": 4,
      "componentType": 5126,
      "count": 5496,
      "max": [
        0.11920396238565445,
        1.1838020086288452,
        0.20202800631523132
      ],
      "min": [
        -0.12102603912353516,
        0.8774660229682922,
        -0.10238400101661682
      ],
      "type": "VEC3"
    },
    {
      "bufferView": 5,
      "componentType": 5126,
      "count": 5496,
      "max": [
        0.9994055032730103,
        0.9991781115531921,
        0.9961994886398315
      ],
      "min": [
        -0.9994102120399475,
        -0.9990447163581848,
        -0.9977524280548096
      ],
      "type": "VEC3"
    },
    {
      "bufferView": 6,
      "componentType": 5126,
      "count": 5496,
      "max": [
        0.9990000128746033,
        0.9750999808311462
      ],
      "min": [
        0.000699999975040555,
        0.026900000870227814
      ],
      "type": "VEC2"
    },
    {
      "bufferView": 7,
      "componentType": 5123,
      "count": 5496,
      "max": [
        5495
      ],
      "min": [
        0
      ],
      "type": "SCALAR"
    },
    {
      "bufferView": 8,
      "componentType": 5126,
      "count": 5541,
      "max": [
        0.20085591077804565,
        1.25,
        0.284985214471817
      ],
      "min": [
        -0.20268309116363525,
        0.6882299780845642,
        -0.1313069462776184
      ],
      "type": "VEC3"
    },
    {
      "bufferView": 9,
      "componentType": 5126,
      "count": 5541,
      "max": [
        0.9998084306716919,
        0.9993450045585632,
        0.9974327087402344
      ],
      "min": [
        -0.9994145631790161,
        -0.9992585182189941,
        -0.998723566532135
      ],
      "type": "VEC3"
    },
    {
      "bufferView": 10,
      "componentType": 5126,
      "count": 5541,
      "max": [
        0.9839000105857849,
        0.9948999881744385
      ],
      "min": [
        0.00430000014603138,
        0.006300000008195639
      ],
      "type": "VEC2"
    },
    {
      "bufferView": 11,
      "componentType": 5123,
      "count": 5541,
      "max": [
        5540
      ],
      "min": [
        0
      ],
      "type": "SCALAR"
    },
    {
      "bufferView": 12,
      "componentType": 5126,
      "count": 10566,
      "max": [
        0.9950679540634155,
        0.920976996421814,
        0.2641831338405609
      ],
      "min": [
        -0.9950680732727051,
        -1.1838690042495728,
        -0.10669612884521484
      ],
      "type": "VEC3"
    },
    {
      "bufferView": 13,
      "componentType": 5126,
      "count": 10566,
      "max": [
        0.9985998272895813,
        0.9990056753158569,
        0.9998052716255188
      ],
      "min": [
        -0.9985997080802917,
        -0.9964324235916138,
        -0.9999362826347351
      ],
      "type": "VEC3"
    },
    {
      "bufferView": 14,
      "componentType": 5126,
      "count": 10566,
      "max": [
        0.9916999936103821,
        0.9897000193595886
      ],
      "min": [
        0.01080000028014183,
        0.02290000021457672
      ],
      "type": "VEC2"
    },
    {
      "bufferView": 15,
      "componentType": 5123,
      "count": 10566,
      "max": [
        10565
      ],
      "min": [
        0
      ],
      "type": "SCALAR"
    },
    {
      "bufferView": 16,
      "componentType": 5126,
      "count": 12953,
      "max": [
        0.8225880265235901,
        0.919933021068573,
        0.4097585678100586
      ],
      "min": [
        -0.8225880265235901,
        -1.25,
        -0.4097593426704407
      ],
      "type": "VEC3"
    },
    {
      "bufferView": 17,
      "componentType": 5126,
      "count": 12953,
      "max": [
        0.9989915490150452,
        0.9981057643890381,
        0.9997230768203735
      ],
      "min": [
        -0.9999805092811584,
        -0.9999997615814209,
        -0.9998400211334229
      ],
      "type": "VEC3"
    },
    {
      "bufferView": 18,
      "componentType": 5126,
      "count": 12953,
      "max": [
        0.9990000128746033,
        0.9988999962806702
      ],
      "min": [
        0.0006000000284984708,
        0.004399999976158142
      ],
      "type": "VEC2"
    },
    {
      "bufferView": 19,
      "componentType": 5123,
      "count": 12957,
      "max": [
        12952
      ],
      "min": [
        0
      ],
      "type": "SCALAR"
    },
    {
      "bufferView": 20,
      "componentType": 5126,
      "count": 1410,
      "max": [
        0.09332984685897827,
        1.0642679929733276,
        0.15154506266117096
      ],
      "min": [
        -0.0951511561870575,
        0.9786229729652405,
        0.10279493033885956
      ],
      "type": "VEC3"
    },
    {
      "bufferView": 21,
      "componentType": 5126,
      "count": 1410,
      "max": [
        0.9245051741600037,
        0.8433573842048645,
        0.9986764788627625
      ],
      "min": [
        -0.9245061278343201,
        -0.868807852268219,
        -0.9123244881629944
      ],
      "type": "VEC3"
    },
    {
      "bufferView": 22,
      "componentType": 5126,
      "count": 1410,
      "max": [
        0.9878000020980835,
        0.979200005531311
      ],
      "min": [
        0.011900000274181366,
        0.01860000006854534
      ],
      "type": "VEC2"
    },
    {
      "bufferView": 23,
      "componentType": 5123,
      "count": 1410,
      "max": [
        1409
      ],
      "min": [
        0
      ],
      "type": "SCALAR"
    }
  ],
  "materials": [
    {
      "pbrMetallicRoughness": {
        "baseColorFactor": [
          0,
          0,
          0,
          1
        ],
        "metallicFactor": 0.5,
        "roughnessFactor": 0.5,
        "baseColorTexture": {
          "index": 0
        }
      },
      "doubleSided": true,
      "name": "mat_0-color_0.000000-0.000000-0.000000.jpg"
    },
    {
      "pbrMetallicRoughness": {
        "baseColorFactor": [
          0.698039,
          0.698039,
          0.698039,
          1
        ],
        "metallicFactor": 0.5,
        "roughnessFactor": 0.5,
        "baseColorTexture": {
          "index": 1
        }
      },
      "doubleSided": true,
      "name": "mat_1-yfsyly__6_.jpg"
    },
    {
      "pbrMetallicRoughness": {
        "baseColorFactor": [
          0.0078,
          0.0078,
          0.0078,
          1
        ],
        "metallicFactor": 0.5,
        "roughnessFactor": 0.5,
        "baseColorTexture": {
          "index": 2
        }
      },
      "doubleSided": true,
      "name": "mat_2-color_0.007800-0.007800-0.007800.jpg"
    },
    {
      "pbrMetallicRoughness": {
        "baseColorFactor": [
          0.698039,
          0.698039,
          0.698039,
          1
        ],
        "metallicFactor": 0.5,
        "roughnessFactor": 0.5,
        "baseColorTexture": {
          "index": 3
        }
      },
      "doubleSided": true,
      "name": "mat_3-yfsyly__21_.jpg"
    },
    {
      "pbrMetallicRoughness": {
        "baseColorFactor": [
          0,
          0,
          0,
          1
        ],
        "metallicFactor": 0.5,
        "roughnessFactor": 0.5,
        "baseColorTexture": {
          "index": 4
        }
      },
      "doubleSided": true,
      "name": "mat_4-color_0.000000-0.000000-0.000000.jpg"
    },
    {
      "pbrMetallicRoughness": {
        "baseColorFactor": [
          0.698039,
          0.698039,
          0.698039,
          1
        ],
        "metallicFactor": 0.5,
        "roughnessFactor": 0.5,
        "baseColorTexture": {
          "index": 5
        }
      },
      "doubleSided": true,
      "name": "mat_5-yfsyly__13_.jpg"
    }
  ],
  "textures": [
    {
      "sampler": 0,
      "source": 0
    },
    {
      "sampler": 1,
      "source": 1
    },
    {
      "sampler": 2,
      "source": 2
    },
    {
      "sampler": 3,
      "source": 3
    },
    {
      "sampler": 4,
      "source": 4
    },
    {
      "sampler": 5,
      "source": 5
    }
  ],
  "samplers": [
    {
      "magFilter": 9729,
      "minFilter": 9987,
      "wrapS": 10497,
      "wrapT": 10497
    },
    {
      "magFilter": 9729,
      "minFilter": 9987,
      "wrapS": 10497,
      "wrapT": 10497
    },
    {
      "magFilter": 9729,
      "minFilter": 9987,
      "wrapS": 10497,
      "wrapT": 10497
    },
    {
      "magFilter": 9729,
      "minFilter": 9987,
      "wrapS": 10497,
      "wrapT": 10497
    },
    {
      "magFilter": 9729,
      "minFilter": 9987,
      "wrapS": 10497,
      "wrapT": 10497
    },
    {
      "magFilter": 9729,
      "minFilter": 9987,
      "wrapS": 10497,
      "wrapT": 10497
    }
  ],
  "images": [
    {
      "mimeType": "image/jpeg",
      "uri": "data:image/jpeg;base64,"
    },
    {
      "mimeType": "image/jpeg",
      "uri": "data:image/jpeg;base64,"
    },
    {
      "mimeType": "image/jpeg",
      "uri": "data:image/jpeg;base64,"
    },
    {
      "mimeType": "image/jpeg",
      "uri": "data:image/jpeg;base64,"
    },
    {
      "mimeType": "image/jpeg",
      "uri": "data:image/jpeg;base64,"
    },
    {
      "mimeType": "image/jpeg",
      "uri": "data:image/jpeg;base64,"
    }
  ],
  "meshes": [
    {
      "primitives": [
        {
          "mode": 4,
          "attributes": {
            "POSITION": 0,
            "NORMAL": 1,
            "TEXCOORD_0": 2
          },
          "indices": 3,
          "material": 0
        }
      ]
    },
    {
      "primitives": [
        {
          "mode": 4,
          "attributes": {
            "POSITION": 4,
            "NORMAL": 5,
            "TEXCOORD_0": 6
          },
          "indices": 7,
          "material": 1
        }
      ]
    },
    {
      "primitives": [
        {
          "mode": 4,
          "attributes": {
            "POSITION": 8,
            "NORMAL": 9,
            "TEXCOORD_0": 10
          },
          "indices": 11,
          "material": 2
        }
      ]
    },
    {
      "primitives": [
        {
          "mode": 4,
          "attributes": {
            "POSITION": 12,
            "NORMAL": 13,
            "TEXCOORD_0": 14
          },
          "indices": 15,
          "material": 3
        }
      ]
    },
    {
      "primitives": [
        {
          "mode": 4,
          "attributes": {
            "POSITION": 16,
            "NORMAL": 17,
            "TEXCOORD_0": 18
          },
          "indices": 19,
          "material": 4
        }
      ]
    },
    {
      "primitives": [
        {
          "mode": 4,
          "attributes": {
            "POSITION": 20,
            "NORMAL": 21,
            "TEXCOORD_0": 22
          },
          "indices": 23,
          "material": 5
        }
      ]
    }
  ]
}